<svg width="276" height="52" viewBox="0 0 276 52" fill="none" xmlns="http://www.w3.org/2000/svg">
<path d="M52.376 6.776V51H30.296V35L27.48 42.424H25.816L22.872 35V51H0.856V6.776H22.872L25.816 15.288H27.48L30.296 6.776H52.376ZM144.356 51V6.776H167.78C175.161 6.776 180.516 7.84266 183.844 9.976C187.172 12.1093 188.836 15.544 188.836 20.28C188.836 21.944 188.623 23.48 188.196 24.888C187.769 26.296 187.343 27.2987 186.916 27.896L186.276 28.792C187.727 29.5173 188.751 31.288 189.348 34.104C189.604 35.256 189.732 36.5787 189.732 38.072C189.732 42.0827 188.495 45.24 186.02 47.544C183.588 49.848 179.919 51 175.012 51H144.356ZM170.02 28.856V25.528C170.02 24.9733 169.849 24.5467 169.508 24.248C169.167 23.9067 168.74 23.736 168.228 23.736H166.372V28.856H170.02ZM171.812 31.992H166.372V35.64H171.812C172.281 35.64 172.687 35.4693 173.028 35.128C173.412 34.744 173.604 34.296 173.604 33.784C173.604 33.272 173.433 32.8453 173.092 32.504C172.751 32.1627 172.324 31.992 171.812 31.992Z" fill="#444746"/>
<path d="M93.6115 26.808L93.2915 34.68L94.8915 34.616V49.144C94.1235 49.784 92.8008 50.36 90.9235 50.872C89.0462 51.384 87.2755 51.64 85.6115 51.64C83.9475 51.64 82.6248 51.4907 81.6435 51.192C80.6622 50.8933 79.9368 50.5733 79.4675 50.232C78.9982 49.848 78.6355 49.4213 78.3795 48.952C77.9955 48.2693 77.8035 47.6933 77.8035 47.224C75.4568 50.168 71.7235 51.64 66.6035 51.64C59.5635 51.64 56.0435 48.6533 56.0435 42.68C56.0435 39.096 57.4088 36.5573 60.1395 35.064C62.8702 33.528 67.6488 32.6107 74.4755 32.312C74.4755 30.8187 72.8328 30.072 69.5475 30.072C67.3288 30.072 65.1955 30.3493 63.1475 30.904C61.1422 31.4587 59.6915 32.0133 58.7955 32.568L57.3875 33.4V16.568C57.7715 16.2693 58.3475 15.9067 59.1155 15.48C59.8835 15.0107 61.6968 14.4133 64.5555 13.688C67.4142 12.92 70.5502 12.536 73.9635 12.536C80.7902 12.536 85.7608 13.688 88.8755 15.992C92.0328 18.296 93.6115 21.9013 93.6115 26.808ZM75.4995 36.984V34.424L71.8515 35.448V36.984C71.8515 37.5387 72.0222 37.9867 72.3635 38.328C72.7475 38.6693 73.1955 38.84 73.7075 38.84C74.2622 38.84 74.6888 38.6693 74.9875 38.328C75.3288 37.9867 75.4995 37.5387 75.4995 36.984ZM107.641 16.312C104.398 16.312 102.009 15.672 100.473 14.392C98.9365 13.112 98.1685 11.064 98.1685 8.248C98.1685 5.432 98.9365 3.40533 100.473 2.168C102.051 0.930664 104.441 0.311996 107.641 0.311996C114.041 0.311996 117.241 2.89333 117.241 8.056C117.241 11 116.451 13.112 114.873 14.392C113.294 15.672 110.883 16.312 107.641 16.312ZM98.1685 51V17.784H117.241V51H98.1685ZM120.981 41.592V3.32H140.181V34.552H141.525V50.296C139.264 51.192 136.106 51.64 132.053 51.64C128.042 51.64 125.184 50.808 123.477 49.144C121.813 47.48 120.981 44.9627 120.981 41.592ZM213.665 51.576H211.105C204.876 51.576 200.204 50.04 197.089 46.968C194.017 43.896 192.481 38.9467 192.481 32.12C192.481 25.2933 194.017 20.3227 197.089 17.208C200.204 14.0933 204.876 12.536 211.105 12.536H213.665C219.894 12.536 224.566 14.0933 227.681 17.208C230.796 20.3227 232.353 25.2933 232.353 32.12C232.353 38.9467 230.796 43.896 227.681 46.968C224.609 50.04 219.937 51.576 213.665 51.576ZM210.593 31.608V36.984C210.593 37.5387 210.742 37.9867 211.041 38.328C211.382 38.6693 211.809 38.84 212.321 38.84C212.876 38.84 213.324 38.6693 213.665 38.328C214.049 37.9867 214.241 37.5387 214.241 36.984V31.608C214.241 31.096 214.049 30.6693 213.665 30.328C213.324 29.944 212.897 29.752 212.385 29.752C211.873 29.752 211.446 29.944 211.105 30.328C210.764 30.6693 210.593 31.096 210.593 31.608ZM255.299 51L253.187 37.112L251.011 51H232.451L237.443 32.888L232.515 13.176H252.163L254.467 29.496L256.771 13.176H275.075L269.379 32.888L275.075 51H255.299Z" fill="#808080"/>
</svg>
