<svg width="52" height="11" viewBox="0 0 52 11" fill="none" xmlns="http://www.w3.org/2000/svg">
<path d="M10.008 1.708V10H5.868V7L5.34 8.392H5.028L4.476 7V10H0.348V1.708H4.476L5.028 3.304H5.34L5.868 1.708H10.008ZM27.2543 10V1.708H31.6463C33.0303 1.708 34.0343 1.908 34.6583 2.308C35.2823 2.708 35.5943 3.352 35.5943 4.24C35.5943 4.552 35.5543 4.84 35.4743 5.104C35.3943 5.368 35.3143 5.556 35.2343 5.668L35.1143 5.836C35.3863 5.972 35.5783 6.304 35.6903 6.832C35.7383 7.048 35.7623 7.296 35.7623 7.576C35.7623 8.328 35.5303 8.92 35.0663 9.352C34.6103 9.784 33.9223 10 33.0023 10H27.2543ZM32.0663 5.848V5.224C32.0663 5.12 32.0343 5.04 31.9703 4.984C31.9063 4.92 31.8263 4.888 31.7303 4.888H31.3823V5.848H32.0663ZM32.4023 6.436H31.3823V7.12H32.4023C32.4903 7.12 32.5663 7.088 32.6303 7.024C32.7023 6.952 32.7383 6.868 32.7383 6.772C32.7383 6.676 32.7063 6.596 32.6423 6.532C32.5783 6.468 32.4983 6.436 32.4023 6.436Z" fill="#E9E9E9"/>
<path d="M17.7397 5.464L17.6797 6.94L17.9797 6.928V9.652C17.8357 9.772 17.5877 9.88 17.2357 9.976C16.8837 10.072 16.5517 10.12 16.2397 10.12C15.9277 10.12 15.6797 10.092 15.4957 10.036C15.3117 9.98 15.1757 9.92 15.0877 9.856C14.9997 9.784 14.9317 9.704 14.8837 9.616C14.8117 9.488 14.7757 9.38 14.7757 9.292C14.3357 9.844 13.6357 10.12 12.6757 10.12C11.3557 10.12 10.6957 9.56 10.6957 8.44C10.6957 7.768 10.9517 7.292 11.4637 7.012C11.9757 6.724 12.8717 6.552 14.1517 6.496C14.1517 6.216 13.8437 6.076 13.2277 6.076C12.8117 6.076 12.4117 6.128 12.0277 6.232C11.6517 6.336 11.3797 6.44 11.2117 6.544L10.9477 6.7V3.544C11.0197 3.488 11.1277 3.42 11.2717 3.34C11.4157 3.252 11.7557 3.14 12.2917 3.004C12.8277 2.86 13.4157 2.788 14.0557 2.788C15.3357 2.788 16.2677 3.004 16.8517 3.436C17.4437 3.868 17.7397 4.544 17.7397 5.464ZM14.3437 7.372V6.892L13.6597 7.084V7.372C13.6597 7.476 13.6917 7.56 13.7557 7.624C13.8277 7.688 13.9117 7.72 14.0077 7.72C14.1117 7.72 14.1917 7.688 14.2477 7.624C14.3117 7.56 14.3437 7.476 14.3437 7.372ZM20.3701 3.496C19.7621 3.496 19.3141 3.376 19.0261 3.136C18.7381 2.896 18.5941 2.512 18.5941 1.984C18.5941 1.456 18.7381 1.076 19.0261 0.844C19.3221 0.612 19.7701 0.495999 20.3701 0.495999C21.5701 0.495999 22.1701 0.98 22.1701 1.948C22.1701 2.5 22.0221 2.896 21.7261 3.136C21.4301 3.376 20.9781 3.496 20.3701 3.496ZM18.5941 10V3.772H22.1701V10H18.5941ZM22.8714 8.236V1.06H26.4714V6.916H26.7234V9.868C26.2994 10.036 25.7074 10.12 24.9474 10.12C24.1954 10.12 23.6594 9.964 23.3394 9.652C23.0274 9.34 22.8714 8.868 22.8714 8.236ZM40.2497 10.108H39.7697C38.6017 10.108 37.7257 9.82 37.1417 9.244C36.5657 8.668 36.2777 7.74 36.2777 6.46C36.2777 5.18 36.5657 4.248 37.1417 3.664C37.7257 3.08 38.6017 2.788 39.7697 2.788H40.2497C41.4177 2.788 42.2937 3.08 42.8777 3.664C43.4617 4.248 43.7537 5.18 43.7537 6.46C43.7537 7.74 43.4617 8.668 42.8777 9.244C42.3017 9.82 41.4257 10.108 40.2497 10.108ZM39.6737 6.364V7.372C39.6737 7.476 39.7017 7.56 39.7577 7.624C39.8217 7.688 39.9017 7.72 39.9977 7.72C40.1017 7.72 40.1857 7.688 40.2497 7.624C40.3217 7.56 40.3577 7.476 40.3577 7.372V6.364C40.3577 6.268 40.3217 6.188 40.2497 6.124C40.1857 6.052 40.1057 6.016 40.0097 6.016C39.9137 6.016 39.8337 6.052 39.7697 6.124C39.7057 6.188 39.6737 6.268 39.6737 6.364ZM48.0561 10L47.6601 7.396L47.2521 10H43.7721L44.7081 6.604L43.7841 2.908H47.4681L47.9001 5.968L48.3321 2.908H51.7641L50.6961 6.604L51.7641 10H48.0561Z" fill="#FFF"/>
</svg>
